<svg width="272" height="34" viewBox="0 0 272 34" fill="none" xmlns="http://www.w3.org/2000/svg">
<g clip-path="url(#clip0_18_151)">
<path d="M6.30911 33.977H0L16.8014 0.0601501L28.3481 24.2536C28.5006 24.5768 28.5898 24.9278 28.6108 25.2865C28.6318 25.6453 28.584 26.0048 28.4704 26.3446C28.3567 26.6843 28.1793 26.9976 27.9483 27.2666C27.7173 27.5356 27.4372 27.755 27.124 27.9123C26.8109 28.0696 26.4707 28.1617 26.1231 28.1833C25.7754 28.2049 25.427 28.1557 25.0978 28.0384C24.7686 27.9211 24.465 27.738 24.2043 27.4997C23.9436 27.2613 23.731 26.9723 23.5786 26.6491L16.8734 12.2639L6.30911 33.977Z" fill="#EE4A51"/>
<path d="M31.3981 31.3409C31.3981 31.8469 31.2527 32.3415 30.9803 32.7622C30.7079 33.1829 30.3207 33.5108 29.8677 33.7044C29.4147 33.8981 28.9163 33.9487 28.4354 33.85C27.9545 33.7513 27.5127 33.5077 27.166 33.1499C26.8193 32.7921 26.5832 32.3363 26.4876 31.84C26.3919 31.3438 26.441 30.8294 26.6287 30.3619C26.8163 29.8945 27.134 29.495 27.5417 29.2139C27.9494 28.9328 28.4287 28.7827 28.919 28.7827C29.5765 28.7827 30.2071 29.0522 30.672 29.532C31.1369 30.0118 31.3981 30.6625 31.3981 31.3409Z" fill="#00ACC4"/>
<path d="M56.5177 20.0483C55.8797 22.3512 54.5536 24.3876 52.7284 25.8673C50.9033 27.3471 48.6721 28.1947 46.3528 28.2893C44.0336 28.384 41.7445 27.721 39.8117 26.3947C37.879 25.0683 36.4012 23.1464 35.5888 20.9027C34.7764 18.659 34.671 16.2079 35.2875 13.8988C35.904 11.5896 37.2109 9.5401 39.0222 8.04226C40.8334 6.54442 43.0566 5.67465 45.3748 5.55687C47.6931 5.43909 49.9883 6.07931 51.9334 7.38632C52.5297 7.78515 53.2551 7.92319 53.9501 7.77007C54.645 7.61695 55.2526 7.18522 55.6391 6.56984C56.0256 5.95447 56.1594 5.20586 56.011 4.48871C55.8626 3.77156 55.4442 3.1446 54.8479 2.74577C51.7639 0.675724 48.0972 -0.269608 44.4322 0.0604115C40.7671 0.390431 37.3146 1.97681 34.6246 4.56677C31.9347 7.15673 30.1622 10.6012 29.5895 14.3514C29.0169 18.1016 29.677 21.9417 31.4648 25.2597C33.2526 28.5778 36.0651 31.1829 39.4543 32.66C42.8434 34.1371 46.6141 34.4011 50.1655 33.41C53.7169 32.4189 56.8447 30.2298 59.0504 27.1913C61.2562 24.1529 62.413 20.44 62.3365 16.6444V16.6196C62.3195 15.9825 62.0619 15.3774 61.6186 14.9335C61.1753 14.4896 60.5814 14.242 59.9638 14.2436H54.2341C53.5002 14.2623 52.8025 14.5763 52.2898 15.1186C51.7771 15.6608 51.4902 16.3884 51.4902 17.146C51.4902 17.9035 51.7771 18.6311 52.2898 19.1734C52.8025 19.7156 53.5002 20.0296 54.2341 20.0483H56.5177Z" fill="#EE4A51"/>
<path d="M48.8957 17.1239C48.8957 17.6466 48.7455 18.1577 48.464 18.5923C48.1826 19.027 47.7825 19.3658 47.3145 19.5658C46.8465 19.7659 46.3315 19.8182 45.8346 19.7162C45.3378 19.6142 44.8814 19.3625 44.5232 18.9928C44.1649 18.6232 43.921 18.1522 43.8222 17.6395C43.7233 17.1268 43.7741 16.5953 43.9679 16.1124C44.1618 15.6294 44.4901 15.2166 44.9113 14.9262C45.3325 14.6357 45.8277 14.4807 46.3343 14.4807C47.0136 14.4807 47.6651 14.7592 48.1455 15.2549C48.6258 15.7506 48.8957 16.4229 48.8957 17.1239Z" fill="#00ACC4"/>
</g>
<g clip-path="url(#clip1_18_151)">
<path d="M89.5 3.77778C92.4356 3.70708 95.3423 4.35906 97.9526 5.67371V13.3273C95.6175 12.1129 93.0134 11.4766 90.3683 11.4743C85.0868 11.4743 82.3279 15.0621 82.3279 18.8862C82.3279 22.7962 85.0044 26.3035 89.9122 26.3035C92.7705 26.3244 95.5941 25.6898 98.1559 24.4505V32.1846C96.0895 33.2588 92.6601 34 89.0823 34C80.1791 34 73.6665 27.3132 73.6665 18.8862C73.6665 10.5881 80.1791 3.77778 89.5 3.77778Z" fill="#95979A"/>
<path d="M117.952 3.77777C127.295 3.77777 133.824 10.5881 133.824 18.8862C133.824 27.3132 127.311 34 117.952 34C108.592 34 102.118 27.3132 102.118 18.8862C102.118 10.5881 108.631 3.77777 117.952 3.77777ZM117.952 26.3034C122.348 26.3034 125.096 22.7962 125.096 18.8862C125.096 15.0621 122.293 11.4743 117.952 11.4743C113.61 11.4743 110.774 15.0567 110.774 18.8862C110.774 22.7962 113.621 26.3034 117.952 26.3034Z" fill="#95979A"/>
<path d="M147.476 20.3793V33.3931H139.062V3.98187H139.474L156.461 17.3985V4.38469H164.914V33.7959H164.546L147.476 20.3793Z" fill="#95979A"/>
<path d="M192.046 25.1756C192.046 30.6969 187.842 34 180.087 34C176.99 34.0378 173.914 33.5039 171.019 32.4263V24.3699C173.665 25.792 176.619 26.5781 179.637 26.6633C182.236 26.6633 183.638 26.2229 183.638 25.1756C183.638 23.9671 181.698 23.4032 178.521 22.1947C173.74 20.3793 170.36 18.4351 170.36 12.8869C170.36 7.44613 174.938 3.7563 181.989 3.7563C184.745 3.72281 187.484 4.18713 190.068 5.12589V12.9084C188.254 11.7375 185.49 11.05 182.731 11.05C180.296 11.05 178.812 11.7375 178.812 12.9084C178.812 13.9557 180.626 14.6808 183.638 15.8892C188.419 17.8228 192.046 19.7993 192.046 25.1971" fill="#95979A"/>
<path d="M196.872 4.3847H205.49V21.5019C205.49 24.5633 207.017 26.2981 210.188 26.2981C213.36 26.2981 214.909 24.5687 214.909 21.5019V4.3847H223.565V22.4364C223.565 29.3273 218.658 34 210.205 34C201.752 34 196.889 29.3273 196.889 22.4364L196.872 4.3847Z" fill="#95979A"/>
<path d="M230.105 33.3931V4.3847H238.722V26.3035H248.868V33.3931H230.105Z" fill="#95979A"/>
<path d="M272 4.3847V11.4743H264.41V33.3931H255.754V11.4743H248.165V4.3847H272Z" fill="#95979A"/>
</g>
<defs>
<clipPath id="clip0_18_151">
<rect width="62.3333" height="34" fill="white"/>
</clipPath>
<clipPath id="clip1_18_151">
<rect width="198.333" height="30.2222" fill="white" transform="translate(73.6665 3.77777)"/>
</clipPath>
</defs>
</svg>
