<svg width="272" height="34" viewBox="0 0 272 34" fill="none" xmlns="http://www.w3.org/2000/svg">
<g clip-path="url(#clip0_27_327)">
<path d="M6.30911 33.9772H0L16.8014 0.0603027L28.3481 24.2538C28.5006 24.5769 28.5898 24.9279 28.6108 25.2867C28.6318 25.6455 28.584 26.005 28.4704 26.3447C28.3567 26.6844 28.1793 26.9978 27.9483 27.2667C27.7173 27.5357 27.4372 27.7551 27.124 27.9124C26.8109 28.0697 26.4707 28.1618 26.1231 28.1834C25.7754 28.2051 25.427 28.1559 25.0978 28.0386C24.7686 27.9213 24.465 27.7382 24.2043 27.4998C23.9436 27.2614 23.731 26.9724 23.5786 26.6492L16.8734 12.2641L6.30911 33.9772Z" fill="white"/>
<path d="M31.3981 31.3409C31.3981 31.8469 31.2527 32.3415 30.9803 32.7622C30.7079 33.1829 30.3207 33.5108 29.8677 33.7044C29.4147 33.8981 28.9163 33.9487 28.4354 33.85C27.9545 33.7513 27.5127 33.5077 27.166 33.1499C26.8193 32.7921 26.5832 32.3363 26.4876 31.84C26.3919 31.3438 26.441 30.8294 26.6287 30.3619C26.8163 29.8945 27.134 29.495 27.5417 29.2139C27.9494 28.9328 28.4287 28.7827 28.919 28.7827C29.5765 28.7827 30.2071 29.0522 30.672 29.532C31.1369 30.0118 31.3981 30.6625 31.3981 31.3409Z" fill="white"/>
<path d="M56.5177 20.0484C55.8797 22.3513 54.5536 24.3877 52.7284 25.8674C50.9033 27.3471 48.6721 28.1947 46.3528 28.2894C44.0336 28.3841 41.7445 27.721 39.8117 26.3947C37.879 25.0684 36.4012 23.1465 35.5888 20.9028C34.7764 18.6591 34.671 16.208 35.2875 13.8988C35.904 11.5897 37.2109 9.54016 39.0222 8.04232C40.8334 6.54448 43.0566 5.67471 45.3748 5.55693C47.6931 5.43916 49.9883 6.07937 51.9334 7.38638C52.5297 7.78521 53.2551 7.92325 53.9501 7.77013C54.645 7.61701 55.2526 7.18528 55.6391 6.5699C56.0256 5.95453 56.1594 5.20592 56.011 4.48877C55.8626 3.77162 55.4442 3.14466 54.8479 2.74583C51.7639 0.675785 48.0972 -0.269547 44.4322 0.0604725C40.7671 0.390492 37.3146 1.97687 34.6246 4.56683C31.9347 7.15679 30.1622 10.6013 29.5895 14.3515C29.0169 18.1017 29.677 21.9417 31.4648 25.2598C33.2526 28.5779 36.0651 31.183 39.4543 32.6601C42.8434 34.1372 46.6141 34.4012 50.1655 33.4101C53.7169 32.419 56.8447 30.2298 59.0504 27.1914C61.2562 24.153 62.413 20.4401 62.3365 16.6445V16.6197C62.3195 15.9825 62.0619 15.3774 61.6186 14.9335C61.1753 14.4896 60.5814 14.2421 59.9638 14.2437H54.2341C53.5002 14.2624 52.8025 14.5764 52.2898 15.1186C51.7771 15.6609 51.4902 16.3885 51.4902 17.146C51.4902 17.9036 51.7771 18.6312 52.2898 19.1734C52.8025 19.7157 53.5002 20.0297 54.2341 20.0484H56.5177Z" fill="white"/>
<path d="M48.8957 17.1239C48.8957 17.6466 48.7455 18.1577 48.464 18.5923C48.1826 19.027 47.7825 19.3658 47.3145 19.5658C46.8465 19.7659 46.3315 19.8182 45.8346 19.7162C45.3378 19.6142 44.8814 19.3625 44.5232 18.9928C44.1649 18.6232 43.921 18.1522 43.8222 17.6395C43.7233 17.1268 43.7741 16.5953 43.9679 16.1124C44.1618 15.6294 44.4901 15.2166 44.9113 14.9262C45.3325 14.6357 45.8277 14.4807 46.3343 14.4807C47.0136 14.4807 47.6651 14.7592 48.1455 15.2549C48.6258 15.7506 48.8957 16.4229 48.8957 17.1239Z" fill="white"/>
</g>
<g clip-path="url(#clip1_27_327)">
<path d="M89.5 3.7779C92.4356 3.7072 95.3423 4.35918 97.9526 5.67384V13.3274C95.6175 12.113 93.0134 11.4767 90.3683 11.4744C85.0868 11.4744 82.3279 15.0622 82.3279 18.8863C82.3279 22.7964 85.0044 26.3036 89.9122 26.3036C92.7705 26.3245 95.5941 25.6899 98.1559 24.4506V32.1847C96.0895 33.2589 92.6601 34.0001 89.0823 34.0001C80.1791 34.0001 73.6665 27.3133 73.6665 18.8863C73.6665 10.5882 80.1791 3.7779 89.5 3.7779Z" fill="white"/>
<path d="M117.952 3.77783C127.295 3.77783 133.824 10.5882 133.824 18.8863C133.824 27.3132 127.311 34.0001 117.952 34.0001C108.592 34.0001 102.118 27.3132 102.118 18.8863C102.118 10.5882 108.631 3.77783 117.952 3.77783ZM117.952 26.3035C122.348 26.3035 125.096 22.7963 125.096 18.8863C125.096 15.0622 122.293 11.4744 117.952 11.4744C113.61 11.4744 110.774 15.0568 110.774 18.8863C110.774 22.7963 113.621 26.3035 117.952 26.3035Z" fill="white"/>
<path d="M147.476 20.3794V33.3931H139.062V3.98193H139.474L156.461 17.3985V4.38475H164.914V33.796H164.546L147.476 20.3794Z" fill="white"/>
<path d="M192.046 25.1756C192.046 30.6969 187.842 34 180.087 34C176.99 34.0378 173.914 33.5039 171.019 32.4264V24.37C173.665 25.792 176.619 26.5781 179.637 26.6633C182.236 26.6633 183.638 26.2229 183.638 25.1756C183.638 23.9671 181.698 23.4032 178.521 22.1947C173.74 20.3794 170.36 18.4351 170.36 12.8869C170.36 7.44616 174.938 3.75633 181.989 3.75633C184.745 3.72284 187.484 4.18716 190.068 5.12592V12.9084C188.254 11.7375 185.49 11.0501 182.731 11.0501C180.296 11.0501 178.812 11.7375 178.812 12.9084C178.812 13.9557 180.626 14.6808 183.638 15.8893C188.419 17.8228 192.046 19.7993 192.046 25.1971" fill="white"/>
<path d="M196.872 4.38477H205.49V21.5019C205.49 24.5633 207.017 26.2982 210.188 26.2982C213.36 26.2982 214.909 24.5687 214.909 21.5019V4.38477H223.565V22.4365C223.565 29.3274 218.658 34.0001 210.205 34.0001C201.752 34.0001 196.889 29.3274 196.889 22.4365L196.872 4.38477Z" fill="white"/>
<path d="M230.105 33.3932V4.38477H238.722V26.3035H248.868V33.3932H230.105Z" fill="white"/>
<path d="M272 4.38477V11.4744H264.41V33.3932H255.754V11.4744H248.165V4.38477H272Z" fill="white"/>
</g>
<defs>
<clipPath id="clip0_27_327">
<rect width="62.3333" height="34" fill="white"/>
</clipPath>
<clipPath id="clip1_27_327">
<rect width="198.333" height="30.2222" fill="white" transform="translate(73.6665 3.77783)"/>
</clipPath>
</defs>
</svg>
