<svg width="110" height="100" viewBox="0 0 110 86" fill="none" xmlns="http://www.w3.org/2000/svg">
	<path d="M0 9.3125C0 4.24023 4.1059 0.125 9.16667 0.125H27.5C32.5608 0.125 36.6667 4.24023 36.6667 9.3125V12.375H73.3333V9.3125C73.3333 4.24023 77.4392 0.125 82.5 0.125H100.833C105.894 0.125 110 4.24023 110 9.3125V27.6875C110 32.7598 105.894 36.875 100.833 36.875H82.5C77.4392 36.875 73.3333 32.7598 73.3333 27.6875V24.625H36.6667V27.6875C36.6667 28.0129 36.6476 28.3383 36.6094 28.6445L51.9444 49.125H70.2778C75.3385 49.125 79.4444 53.2402 79.4444 58.3125V76.6875C79.4444 81.7598 75.3385 85.875 70.2778 85.875H51.9444C46.8837 85.875 42.7778 81.7598 42.7778 76.6875V58.3125C42.7778 57.9871 42.7969 57.6617 42.8351 57.3555L27.5 36.875H9.16667C4.1059 36.875 0 32.7598 0 27.6875V9.3125Z" fill="#EE4A51" />
</svg>
