<svg width="108" height="100" viewBox="0 0 108 84" fill="none" xmlns="http://www.w3.org/2000/svg">
	<path d="M54.0002 0C38.8502 0 26.7189 6.9 17.8877 15.1125C9.1127 23.25 3.24395 33 0.468945 39.6937C-0.149805 41.175 -0.149805 42.825 0.468945 44.3062C3.24395 51 9.1127 60.75 17.8877 68.8875C26.7189 77.1 38.8502 84 54.0002 84C69.1502 84 81.2814 77.1 90.1127 68.8875C98.8877 60.7312 104.756 51 107.55 44.3062C108.169 42.825 108.169 41.175 107.55 39.6937C104.756 33 98.8877 23.25 90.1127 15.1125C81.2814 6.9 69.1502 0 54.0002 0ZM27.0002 42C27.0002 34.8392 29.8448 27.9716 34.9083 22.9081C39.9718 17.8446 46.8394 15 54.0002 15C61.161 15 68.0286 17.8446 73.0921 22.9081C78.1556 27.9716 81.0002 34.8392 81.0002 42C81.0002 49.1608 78.1556 56.0284 73.0921 61.0919C68.0286 66.1554 61.161 69 54.0002 69C46.8394 69 39.9718 66.1554 34.9083 61.0919C29.8448 56.0284 27.0002 49.1608 27.0002 42ZM54.0002 30C54.0002 36.6188 48.6189 42 42.0002 42C40.6689 42 39.3939 41.775 38.1939 41.3812C37.1627 41.0438 35.9627 41.6813 36.0002 42.7688C36.0564 44.0625 36.2439 45.3562 36.6002 46.65C39.1689 56.25 49.0502 61.95 58.6502 59.3813C68.2502 56.8125 73.9502 46.9313 71.3814 37.3313C69.3002 29.55 62.4189 24.3188 54.7689 24C53.6814 23.9625 53.0439 25.1437 53.3814 26.1937C53.7752 27.3937 54.0002 28.6688 54.0002 30Z" fill="#EE4A51" />
</svg>
