<svg xmlns="http://www.w3.org/2000/svg" viewBox="0 0 363.58 271.28"><defs><style>.cls-1{fill:#e56c6b;}.cls-2{fill:#00acc4;}.cls-3{fill:#95979a;}</style></defs><title>Asset 1</title><g id="Layer_2" data-name="Layer 2"><g id="Layer_1-2" data-name="Layer 1"><path class="cls-1" d="M36.8,192.05H0L98,.34l67.35,136.75a15.47,15.47,0,1,1-27.82,13.54L98.42,69.32Z"/><path class="cls-2" d="M183.14,177.15a14.46,14.46,0,1,1-14.46-14.46,14.46,14.46,0,0,1,14.46,14.46"/><path class="cls-1" d="M329.66,113.32a64.31,64.31,0,1,1-26.74-71.57,15.62,15.62,0,0,0,17-26.23,96.1,96.1,0,1,0,43.68,78.56v-.14a13.81,13.81,0,0,0-13.84-13.43H316.34a16.41,16.41,0,0,0,0,32.81Z"/><path class="cls-2" d="M285.2,96.79a14.94,14.94,0,1,1-14.94-14.94A14.94,14.94,0,0,1,285.2,96.79"/><path class="cls-3" d="M30.76,215a31.75,31.75,0,0,1,15.38,3.53v14.25a29.43,29.43,0,0,0-13.8-3.45c-9.61,0-14.63,6.68-14.63,13.8,0,7.28,4.87,13.81,13.8,13.81a33.25,33.25,0,0,0,15-3.45v14.4c-3.76,2-10,3.38-16.51,3.38C13.8,271.28,2,258.82,2,243.14,2,227.69,13.8,215,30.76,215"/><path class="cls-3" d="M82.53,215c17,0,28.88,12.68,28.88,28.13,0,15.68-11.85,28.14-28.88,28.14s-28.81-12.46-28.81-28.14c0-15.45,11.85-28.13,28.81-28.13m0,41.94c8,0,13-6.53,13-13.81,0-7.12-5.1-13.8-13-13.8s-13,6.68-13,13.8c0,7.28,5.17,13.81,13,13.81"/><polygon class="cls-3" points="136.25 245.92 136.25 270.15 120.94 270.15 120.94 215.38 121.69 215.38 152.6 240.37 152.6 216.13 167.98 216.13 167.98 270.9 167.31 270.9 136.25 245.92"/><path class="cls-3" d="M217.35,254.85c0,10.28-7.65,16.43-21.75,16.43a44.8,44.8,0,0,1-16.51-2.93v-15a34.61,34.61,0,0,0,15.68,4.27c4.73,0,7.28-.82,7.28-2.77,0-2.25-3.53-3.3-9.31-5.55-8.7-3.38-14.85-7-14.85-17.33,0-10.13,8.33-17,21.16-17a40.73,40.73,0,0,1,14.7,2.55V232c-3.3-2.18-8.33-3.46-13.35-3.46-4.43,0-7.13,1.28-7.13,3.46,0,1.95,3.3,3.3,8.78,5.55,8.7,3.6,15.3,7.28,15.3,17.33"/><path class="cls-3" d="M226.13,216.14h15.68V248c0,5.7,2.78,8.93,8.55,8.93s8.56-3.23,8.56-8.93V216.14h15.75v33.61c0,12.83-8.93,21.53-24.31,21.53s-24.23-8.7-24.23-21.53Z"/><polygon class="cls-3" points="286.6 270.15 286.6 216.13 302.28 216.13 302.28 256.95 320.74 256.95 320.74 270.15 286.6 270.15"/><polygon class="cls-3" points="362.83 216.13 362.83 229.34 349.03 229.34 349.03 270.15 333.27 270.15 333.27 229.34 319.47 229.34 319.47 216.13 362.83 216.13"/></g></g></svg>