<svg xmlns="http://www.w3.org/2000/svg" viewBox="0 0 360.88 56.27"><defs><style>.cls-1{fill:#95979a;}</style></defs><title>Asset 3</title><g id="Layer_2" data-name="Layer 2"><g id="Layer_1-2" data-name="Layer 1"><path class="cls-1" d="M28.81,0A31.86,31.86,0,0,1,44.19,3.53V17.78a29.43,29.43,0,0,0-13.8-3.45c-9.61,0-14.63,6.68-14.63,13.8,0,7.28,4.87,13.81,13.8,13.81a33.25,33.25,0,0,0,15-3.45v14.4c-3.76,2-10,3.38-16.51,3.38C11.85,56.27,0,43.82,0,28.13,0,12.68,11.85,0,28.81,0"/><path class="cls-1" d="M80.58,0c17,0,28.88,12.68,28.88,28.13,0,15.69-11.85,28.14-28.88,28.14S51.77,43.82,51.77,28.13C51.77,12.68,63.62,0,80.58,0m0,41.94c8,0,13-6.53,13-13.81,0-7.12-5.1-13.8-13-13.8S67.52,21,67.52,28.13c0,7.28,5.18,13.81,13.06,13.81"/><polygon class="cls-1" points="134.3 30.91 134.3 55.14 118.99 55.14 118.99 0.38 119.74 0.38 150.65 25.36 150.65 1.13 166.03 1.13 166.03 55.89 165.36 55.89 134.3 30.91"/><path class="cls-1" d="M215.4,39.84c0,10.28-7.65,16.43-21.76,16.43a44.78,44.78,0,0,1-16.5-2.93v-15a34.61,34.61,0,0,0,15.68,4.27c4.73,0,7.28-.82,7.28-2.77,0-2.25-3.53-3.3-9.31-5.55-8.7-3.38-14.85-7-14.85-17.33,0-10.13,8.33-17,21.16-17a40.73,40.73,0,0,1,14.7,2.55V17c-3.3-2.18-8.33-3.46-13.35-3.46-4.43,0-7.13,1.28-7.13,3.46,0,1.95,3.3,3.3,8.78,5.55,8.7,3.6,15.3,7.28,15.3,17.33"/><path class="cls-1" d="M224.18,1.13h15.68V33c0,5.7,2.78,8.93,8.55,8.93S257,38.71,257,33V1.13h15.75V34.74c0,12.83-8.93,21.53-24.31,21.53s-24.23-8.7-24.23-21.53Z"/><polygon class="cls-1" points="284.65 55.14 284.65 1.13 300.33 1.13 300.33 41.94 318.79 41.94 318.79 55.14 284.65 55.14"/><polygon class="cls-1" points="360.88 1.13 360.88 14.33 347.07 14.33 347.07 55.14 331.32 55.14 331.32 14.33 317.51 14.33 317.51 1.13 360.88 1.13"/></g></g></svg>