<svg xmlns="http://www.w3.org/2000/svg" viewBox="0 0 363.58 192.18"><defs><style>.cls-1{fill:#e56c6b;}.cls-2{fill:#00acc4;}</style></defs><title>Asset 2</title><g id="Layer_2" data-name="Layer 2"><g id="Layer_1-2" data-name="Layer 1"><path class="cls-1" d="M36.8,192.05H0L98,.34l67.35,136.75a15.47,15.47,0,1,1-27.82,13.54L98.42,69.32Z"/><path class="cls-2" d="M183.14,177.15a14.46,14.46,0,1,1-14.46-14.46,14.46,14.46,0,0,1,14.46,14.46"/><path class="cls-1" d="M329.66,113.32a64.31,64.31,0,1,1-26.74-71.57,15.62,15.62,0,0,0,17-26.23,96.1,96.1,0,1,0,43.68,78.56v-.14a13.81,13.81,0,0,0-13.84-13.43H316.34a16.41,16.41,0,0,0,0,32.81Z"/><path class="cls-2" d="M285.2,96.79a14.94,14.94,0,1,1-14.94-14.94A14.94,14.94,0,0,1,285.2,96.79"/></g></g></svg>